# xmcd CD database file
#
# Track frame offsets:
#	150
#	12255
#	27327
#	41587
#	56415
#	72117
#	83605
#	96532
#	113475
#	128700
#	144292
#	157767
#	168740
#
# Disc length: 2410 seconds
#
# Revision: 0
# Processed by: cddbd v1.4PL0 Copyright (c) Steve Scherf et al.
# Submitted via: CDex 1.50beta8
#
DISCID=9d09680d
DTITLE=Andre Previn - Let's Get Away From It All
DYEAR=1955
DGENRE=Jazz
TTITLE0=Let's Get AWay From It All
TTITLE1=Moonlight In Vermont
TTITLE2=It Happened In Sun Valley
TTITLE3=Serenade To Sweden
TTITLE4=Island In The West Indies
TTITLE5=Flying Down To Rio
TTITLE6=Honolulu
TTITLE7=How Are Things In Glocca Morra
TTITLE8=On A Slow Boat To China
TTITLE9=London In July
TTITLE10=San Francisco
TTITLE11=Sidewalks Of Cuba
TTITLE12=Reprise:Let's Get Away From It All
EXTD=YEAR: 1955
EXTT0=
EXTT1=
EXTT2=
EXTT3=
EXTT4=
EXTT5=
EXTT6=
EXTT7=
EXTT8=
EXTT9=
EXTT10=
EXTT11=
EXTT12=
PLAYORDER=
